PathFileType	4	(X/Y/Z)	C:/Users/opensim2020/Desktop/walking_exp_matlab/subject01_walking15_straight_03.trc	
DataRate	CameraRate	NumFrames	NumMarkers	Units	OrigDataRate	OrigDataStartFrame	OrigNumFrames	
100.00	100.00	8	43	mm	100.00	1654	145	
Frame#	Time	LFHD			RFHD			LBHD			RBHD			C7			T10			CLAV			STRN			RBAK			LSHO			LUPA			LELB			LFRM			LWRA			LWRB			LFIN			RSHO			RUPA			RELB			RFRM			RWRA			RWRB			RFIN			LASI			RASI			LPSI			RPSI			LTHI			LKNE			LTIB			LANK			LHEE			LTOE			RTHI			RKNE			RTIB			RANK			RHEE			RTOE			*39			*40			*41			*42			
		X1	Y1	Z1	X2	Y2	Z2	X3	Y3	Z3	X4	Y4	Z4	X5	Y5	Z5	X6	Y6	Z6	X7	Y7	Z7	X8	Y8	Z8	X9	Y9	Z9	X10	Y10	Z10	X11	Y11	Z11	X12	Y12	Z12	X13	Y13	Z13	X14	Y14	Z14	X15	Y15	Z15	X16	Y16	Z16	X17	Y17	Z17	X18	Y18	Z18	X19	Y19	Z19	X20	Y20	Z20	X21	Y21	Z21	X22	Y22	Z22	X23	Y23	Z23	X24	Y24	Z24	X25	Y25	Z25	X26	Y26	Z26	X27	Y27	Z27	X28	Y28	Z28	X29	Y29	Z29	X30	Y30	Z30	X31	Y31	Z31	X32	Y32	Z32	X33	Y33	Z33	X34	Y34	Z34	X35	Y35	Z35	X36	Y36	Z36	X37	Y37	Z37	X38	Y38	Z38	X39	Y39	Z39	X40	Y40	Z40	X41	Y41	Z41	X42	Y42	Z42	X43	Y43	Z43	

55	0.540	1399.23718	-126.48001	1647.04834	1507.79639	-95.88658	1657.54102	1427.93506	-242.07289	1612.37012	1543.58813	-212.33020	1622.23938	1466.04883	-285.17126	1422.44019	1486.60986	-343.08646	1132.41077	1477.12830	-145.22774	1346.98218	1482.00232	-113.89327	1188.57361	1544.82446	-355.88266	1239.50427	1313.94153	-194.37645	1378.42700	1230.30176	-218.85374	1196.04370	1225.79456	-220.41991	1041.33496	1217.43994	-119.86933	976.15649	1252.29211	11.52704	946.77295	1228.18103	-22.05705	904.19434	1222.92444	59.81706	887.68872	1623.44641	-211.36456	1392.94543	1715.45361	-329.15088	1219.37061	1722.99072	-358.75989	1100.51160	1760.70862	-383.27884	986.45685	1754.92578	-358.60101	844.88696	1789.28345	-400.17609	866.84723	1797.02905	-397.76361	779.72009	1387.37048	-182.21512	921.01062	1603.89746	-177.10509	928.00909	1448.80176	-365.98700	933.12299	1593.06494	-359.65628	931.50159	1347.73511	-264.58191	588.24908	1368.50122	-300.49323	456.06769	1370.87744	-389.23154	286.52280	1433.06140	-458.14328	80.92043	1489.50745	-504.69522	59.09009	1415.19336	-319.72900	32.04882	1674.52490	-118.91318	611.48669	1649.48376	-57.33287	466.77353	1664.54114	-78.46113	292.67480	1625.66101	-54.76814	83.10398	1574.43665	-93.56210	36.08947	1631.34863	86.76781	68.32681	1485.49194	-107.48741	1691.18091	-3101.87720	1973.16516	1023.51819	-3140.62329	2012.56641	1022.19672			 
56	0.550	1400.64465	-114.50628	1646.24573	1509.28650	-83.99645	1656.64038	1429.24060	-230.05212	1611.26514	1544.87549	-200.43098	1620.95166	1466.98975	-272.69598	1421.16553	1487.23547	-330.20700	1131.13135	1478.11780	-132.56357	1345.96497	1482.36157	-101.55008	1187.42102	1545.12927	-343.08591	1237.71704	1314.95691	-181.61240	1377.76135	1230.98376	-205.51949	1195.50562	1225.94080	-206.41782	1040.96912	1217.67664	-103.80745	979.12103	1252.90540	28.29589	954.43591	1228.77710	-3.72413	910.59265	1223.34692	78.71732	897.45099	1624.37305	-199.31567	1391.71985	1715.40784	-318.12708	1218.42798	1722.95618	-347.87784	1099.89612	1760.75671	-374.32205	986.56415	1755.31946	-352.03317	844.50098	1789.29285	-393.58356	867.20532	1797.27917	-392.66849	780.06470	1386.89880	-169.28294	919.82532	1603.66125	-163.10924	926.65948	1449.56287	-352.88828	932.07800	1593.51843	-345.77325	930.47803	1347.46252	-256.34378	587.94434	1368.22644	-293.87399	456.04886	1370.60620	-385.18478	287.85910	1432.88440	-457.21576	83.30375	1489.04004	-503.97803	62.15378	1415.06958	-319.52853	31.90966	1674.46680	-109.43931	608.09387	1648.29688	-44.44844	465.66663	1664.71191	-56.84555	291.85159	1626.38147	-22.36918	82.83781	1575.30615	-57.55320	32.86771	1630.99756	120.38902	75.32410	1487.03247	-95.70982	1690.23999	-3102.01953	1973.09802	1023.47156	-3140.72266	2012.49158	1022.04938			 
57	0.560	1402.23633	-102.46294	1645.40259	1510.90869	-72.08217	1655.74451	1430.61511	-217.90588	1610.08862	1546.32715	-188.46014	1619.72937	1468.15979	-260.17188	1419.85254	1487.94556	-317.11133	1129.69031	1479.24377	-119.80084	1344.98071	1483.00171	-88.48105	1186.43079	1545.68274	-330.30756	1235.90039	1316.12097	-168.92078	1377.18408	1231.71460	-192.17970	1195.01770	1226.22473	-192.63879	1040.82751	1217.68127	-88.37228	981.99603	1253.53442	44.53153	961.65375	1229.31287	14.01423	916.56750	1223.61792	96.78831	906.75104	1625.36121	-187.20702	1390.50500	1715.48022	-307.01868	1217.54102	1723.19849	-336.88318	1099.27417	1760.93823	-364.92786	986.50684	1755.65808	-344.99896	844.11755	1790.51941	-384.35071	868.26416	1797.51367	-386.59967	780.38849	1386.51111	-156.66434	918.39008	1603.37976	-148.85104	925.26556	1450.40161	-339.63477	930.99957	1594.40881	-331.88644	929.67212	1347.06311	-247.51454	587.49261	1368.00500	-286.63168	456.01428	1370.29077	-380.64102	289.21979	1432.37427	-456.02075	85.65012	1488.44128	-503.22525	65.60759	1415.01086	-319.34354	31.81391	1675.00732	-100.23030	604.57898	1647.07507	-30.97423	464.90387	1664.96631	-35.95061	291.57053	1627.09656	7.63197	83.68540	1576.59216	-26.01703	31.85051	1629.98889	150.90988	81.89814	1488.68176	-83.88526	1689.29504	-3101.88867	1973.15173	1023.35553	-3140.83008	2012.49292	1022.09027			 
58	0.570	1403.87744	-90.36670	1644.65295	1512.52966	-60.11543	1654.84912	1432.13550	-205.67924	1608.95215	1547.89038	-176.35313	1618.50488	1469.52393	-247.64021	1418.55005	1488.83472	-303.90735	1128.26917	1480.38330	-106.97460	1343.98291	1483.74072	-75.22100	1185.56335	1546.50305	-317.40112	1234.03247	1317.33960	-156.14896	1376.71252	1232.58630	-179.03436	1194.65430	1226.46509	-178.94464	1040.33215	1218.45569	-73.04584	984.45459	1254.18445	60.24319	968.37036	1229.61475	31.04017	922.32104	1224.29736	114.44730	915.27362	1626.29541	-175.14902	1389.22522	1715.65796	-295.89755	1216.64819	1723.57300	-325.57339	1098.53601	1761.30762	-355.08344	986.39783	1756.01440	-336.80066	843.60925	1790.76819	-376.13672	868.33612	1797.76501	-379.49747	780.53363	1386.45544	-143.79425	917.18420	1602.99927	-134.44681	923.81732	1451.40955	-326.27130	929.91339	1595.41406	-317.46136	928.50012	1346.86035	-238.10867	587.00629	1367.60291	-278.48819	455.83755	1369.87878	-375.46167	290.79160	1431.61328	-454.56528	88.24252	1487.77429	-502.21622	69.70941	1414.91467	-319.16824	31.76025	1675.92969	-91.04964	601.20410	1646.12939	-16.95368	464.47620	1664.31238	-16.38133	290.96512	1626.93738	34.43469	84.57489	1576.85327	1.77829	31.70201	1628.29639	178.02299	87.17540	1490.45337	-72.02598	1688.40576	-3102.05591	1972.98743	1023.79993	-3140.87012	2012.43298	1022.00909			 
59	0.580	1405.64563	-78.21024	1643.98291	1514.38159	-48.04966	1654.06653	1433.76208	-193.52843	1607.90869	1549.58508	-164.27217	1617.35107	1470.98950	-234.96992	1417.28015	1489.79211	-290.47891	1126.95605	1481.61060	-94.04823	1343.04688	1484.48840	-61.86848	1184.73010	1547.48242	-304.39526	1232.17126	1318.62256	-143.63396	1376.25818	1233.56152	-166.04332	1194.36719	1226.80969	-165.17580	1040.06409	1218.83472	-57.99331	986.97351	1254.71484	75.36696	974.49432	1230.05164	47.55146	927.65912	1224.46899	131.15681	923.11060	1627.36462	-163.03365	1388.03943	1715.96716	-284.54007	1215.78247	1724.09778	-314.12613	1097.82385	1761.82214	-344.66495	986.10779	1756.46887	-327.93832	843.19379	1791.17041	-367.09610	868.27692	1798.09045	-371.42780	780.45636	1386.07935	-130.67035	915.96259	1602.63379	-119.96121	922.37579	1452.53113	-312.69388	928.79443	1596.54553	-303.16418	927.36993	1346.42700	-227.72247	586.48474	1367.14624	-269.65671	455.62598	1369.33411	-369.76971	292.32394	1430.95129	-453.05228	91.45689	1486.68652	-501.13675	73.99409	1414.80261	-318.94418	31.67924	1676.74939	-81.26995	598.42322	1645.39172	-3.06244	463.89194	1664.02783	1.99548	290.71396	1626.27124	57.90658	85.37012	1576.22852	26.29053	31.53309	1626.18054	202.06902	90.88586	1492.24402	-60.07581	1687.58533	-3101.95850	1973.14648	1023.44641	-3140.73145	2012.50366	1021.98358			 
60	0.590	1407.51648	-66.08907	1643.36279	1516.27722	-35.95133	1653.34143	1435.55115	-181.31326	1606.98450	1551.39294	-152.09192	1616.27490	1472.53296	-222.25180	1416.01038	1490.96960	-277.18716	1125.94751	1482.93958	-80.98109	1342.25012	1485.25806	-48.42416	1183.98254	1548.64722	-291.28448	1230.39148	1320.00647	-130.98964	1375.87610	1234.69104	-153.31488	1194.19641	1227.18201	-151.56705	1039.93982	1218.95251	-43.47212	989.31116	1255.18433	89.96902	980.07220	1230.40430	63.41969	932.58582	1225.08044	147.08467	930.11011	1628.61475	-150.89008	1386.86792	1716.46863	-272.88217	1215.09473	1724.91284	-302.44855	1097.13013	1762.52515	-333.66177	985.80713	1756.97668	-318.27899	842.63068	1791.76404	-357.35068	868.02313	1798.47925	-362.26358	780.15143	1385.72266	-117.41553	914.88721	1602.41101	-105.28954	921.00122	1453.82141	-298.95654	927.68115	1597.95361	-288.56705	926.22565	1346.42285	-217.01759	586.16766	1366.58960	-260.07379	455.41068	1368.69019	-363.41962	294.00116	1429.95508	-451.10907	95.01414	1485.45325	-499.65137	78.89483	1414.80420	-318.82053	31.76704	1676.99219	-70.02385	596.47485	1645.20068	10.53464	463.30533	1663.19641	18.64851	289.94296	1624.88013	78.05039	85.48677	1575.10547	47.23720	31.65980	1623.43469	222.33141	92.80495	1494.21533	-48.01278	1686.86218	-3102.05273	1973.14893	1023.56494	-3140.70313	2012.57825	1022.17389			 
61	0.600	1409.54297	-53.82549	1642.78992	1518.24719	-23.77865	1652.66248	1437.52112	-169.03583	1606.11096	1553.32520	-139.82745	1615.22522	1474.21777	-209.49942	1414.92419	1492.11304	-263.36243	1124.44446	1484.24280	-67.94000	1341.52637	1485.98889	-34.88817	1183.34570	1549.82788	-277.98105	1228.54089	1321.38550	-118.44655	1375.53870	1235.72864	-140.33092	1194.20166	1227.54065	-138.43645	1039.92639	1219.34363	-29.30599	991.41656	1255.52795	104.14558	984.90405	1230.65063	78.69623	936.96661	1225.36365	162.42290	936.42255	1629.88403	-138.68576	1385.77942	1717.06042	-261.34314	1214.17529	1725.77637	-290.51126	1096.26941	1763.31641	-322.33838	985.21344	1757.58289	-307.81924	841.98944	1792.40259	-346.76013	867.50909	1798.70862	-352.50806	779.52533	1385.51880	-103.83501	913.87866	1602.28101	-90.54932	919.66809	1455.25439	-284.97668	926.71417	1599.48413	-273.90189	925.36664	1346.24451	-205.35497	585.50171	1366.15405	-249.71149	455.18689	1367.90173	-356.49277	295.89920	1428.71045	-448.90573	98.86493	1484.09045	-497.99426	84.51117	1414.69202	-318.50433	31.68443	1676.85400	-56.34312	595.89569	1645.10474	23.90799	462.45309	1662.15601	33.73714	288.86771	1622.89075	94.55450	84.82863	1572.54944	64.40713	30.84691	1620.47827	239.29509	92.87991	1496.26868	-35.96145	1686.22559	-3101.90674	1973.09021	1023.40308	-3140.68896	2012.50745	1022.05853			 
62	0.610	1411.55835	-41.73085	1642.39966	1520.31384	-11.54560	1652.07166	1439.63354	-156.74554	1605.33447	1555.41626	-127.43407	1614.29370	1475.83069	-196.75444	1413.90161	1493.27808	-249.52173	1123.13794	1485.74158	-54.76939	1340.96387	1486.83484	-21.23934	1182.79517	1551.12524	-264.73523	1226.84729	1322.92468	-105.87836	1375.23645	1236.99817	-128.21011	1193.94507	1227.92627	-125.27319	1040.06030	1219.86072	-15.62557	993.22186	1255.84802	117.83603	989.08832	1230.81360	93.23959	940.79181	1225.56213	177.10991	941.79364	1631.31543	-126.36675	1384.73083	1717.86145	-249.52017	1213.36304	1726.81531	-278.40564	1095.40381	1764.27087	-310.46869	984.44690	1758.42822	-296.64398	841.27594	1793.26135	-335.37427	866.79120	1799.22205	-341.52603	778.68408	1385.47876	-89.98881	912.96295	1602.27600	-75.64021	918.47040	1456.75476	-270.70990	925.79077	1600.73413	-258.98495	924.40747	1346.02026	-193.12163	584.96765	1365.47327	-239.01498	455.17163	1366.98352	-348.80240	297.94507	1427.24023	-446.26071	102.95370	1482.26855	-495.94681	90.30634	1414.54309	-318.24832	31.53744	1676.29858	-40.48442	596.17981	1644.98730	37.54261	461.39096	1660.74304	47.34177	287.35791	1620.61694	108.05370	83.26866	1570.59351	78.00108	30.16926	1617.64771	252.86024	91.18484	1498.45923	-23.82213	1685.62354	-3101.95630	1973.09985	1023.38123	-3140.72681	2012.50793	1022.10693			 
